<svg width="364" height="52" viewBox="0 0 364 52" fill="none" xmlns="http://www.w3.org/2000/svg">
<path d="M13.9998 1.20778C11.0455 -0.0784729 9.18929 -0.188152 5.69722 0.19194C4.27826 0.68535 4.05216 1.29637 4.23206 2.73155L6.67399 7.30285C6.67399 7.30285 2.76674 10.3504 0.813338 17.4613C-1.14006 24.5722 0.278027 35.5736 6.67406 42.8574L4.72051 46.4129C3.25535 48.9525 4.23206 52 4.23206 52C4.23206 52 7.65089 52 9.11599 50.9842C11.0531 49.6411 12.5346 46.9208 12.5346 46.9208C12.5346 46.9208 15.465 48.9525 18.3953 48.4446C21.3257 47.9366 22.7908 46.4129 22.7908 46.4129C22.7908 46.4129 21.0455 42.7492 18.3953 41.3336C16.3314 40.2312 12.5346 40.3178 12.5346 40.3178C12.5346 40.3178 10.6959 36.6736 11.5579 32.191C12.0463 29.6514 13.9998 25.0801 13.9998 25.0801C13.9998 25.0801 14.488 30.1594 16.4417 31.1752C18.3955 32.191 22.3024 22.5405 22.3024 22.5405C22.3024 22.5405 26.8102 22.027 29.6282 22.5405C33.9978 23.3368 39.8843 27.6197 39.8843 27.6197C39.8843 27.6197 43.9152 29.3939 44.7682 27.6197C45.1947 26.7327 44.9334 26.0569 44.7682 25.0801C44.3649 22.6955 41.3495 20.0009 41.3495 20.0009V17.4613C41.3495 17.4613 41.3861 12.95 40.3727 10.3504C39.2978 7.59302 38.2229 6.09862 35.9772 4.25532C33.6968 2.38356 29.1398 1.20778 29.1398 1.20778C22.823 0.196908 19.5147 0.213404 13.9998 1.20778Z" fill="#2EA9BC"/>
<path d="M70.0586 32.9248C69.1777 33.1396 68.236 33.2471 67.2334 33.2471C65.751 33.2471 64.666 32.932 63.9785 32.3018C63.291 31.6644 62.9473 30.6367 62.9473 29.2188V22.7412H61.3145V20.5605H62.958V17.0693H66.2451V20.5605H70.0586V22.7412H66.2451V27.8652C66.2451 29.1829 66.4134 30.0423 66.75 30.4434C67.0866 30.8444 67.6523 31.0449 68.4473 31.0449C68.9557 31.0449 69.4606 30.9196 69.9619 30.6689H70.0586V32.9248ZM75.5049 19.0029H71.9707V16.0918H75.5049V19.0029ZM75.3867 33H72.0889V20.5605H75.3867V33ZM77.9648 32.4092V29.3584H78.0938C79.5762 30.5544 81.1374 31.1523 82.7773 31.1523C84.4388 31.1523 85.2695 30.7012 85.2695 29.7988C85.2695 29.4336 85.1406 29.1579 84.8828 28.9717C84.625 28.7783 84.1595 28.6064 83.4863 28.4561C83.0208 28.3701 82.3584 28.2305 81.499 28.0371C80.6396 27.8438 79.9629 27.5752 79.4688 27.2314C78.9818 26.8877 78.6201 26.4723 78.3838 25.9854C78.1475 25.4984 78.0293 24.9362 78.0293 24.2988C78.0293 23.0885 78.5557 22.1074 79.6084 21.3555C80.6611 20.5964 82.0755 20.2168 83.8516 20.2168C85.4199 20.2168 86.8343 20.4925 88.0947 21.0439V23.9443H88.0088C86.5693 22.9202 85.1764 22.4082 83.8301 22.4082C83.1354 22.4082 82.5553 22.5371 82.0898 22.7949C81.6243 23.0527 81.3916 23.375 81.3916 23.7617C81.3916 24.1986 81.5348 24.5173 81.8213 24.7178C82.1149 24.9111 82.6019 25.0866 83.2822 25.2441C84.1488 25.4017 85.0117 25.5915 85.8711 25.8135C86.7305 26.0355 87.4072 26.4294 87.9014 26.9951C88.3955 27.5537 88.6426 28.277 88.6426 29.165C88.6426 30.4326 88.1055 31.446 87.0312 32.2051C85.9642 32.9642 84.5212 33.3438 82.7021 33.3438C80.8975 33.3438 79.3184 33.0322 77.9648 32.4092ZM100.652 32.3877C99.263 33.0179 98.0062 33.333 96.8818 33.333C94.7048 33.333 93.0075 32.7708 91.79 31.6465C90.5726 30.5221 89.9639 28.918 89.9639 26.834C89.9639 24.7357 90.5798 23.11 91.8115 21.957C93.0433 20.7969 94.6904 20.2168 96.7529 20.2168C98.0993 20.2168 99.3991 20.5355 100.652 21.1729V24.2021H100.48C99.263 23.1136 98.0635 22.5693 96.8818 22.5693C95.7861 22.5693 94.9339 22.9453 94.3252 23.6973C93.7165 24.4492 93.4121 25.4948 93.4121 26.834C93.4121 28.1732 93.7165 29.2008 94.3252 29.917C94.9411 30.626 95.8112 30.9805 96.9355 30.9805C98.1315 30.9805 99.3132 30.4362 100.48 29.3477H100.652V32.3877ZM108.376 33.3867C106.356 33.3867 104.788 32.8066 103.671 31.6465C102.554 30.4792 101.995 28.8607 101.995 26.791C101.995 24.7142 102.557 23.0921 103.682 21.9248C104.813 20.7575 106.378 20.1738 108.376 20.1738C110.388 20.1738 111.953 20.7575 113.07 21.9248C114.195 23.0921 114.757 24.7142 114.757 26.791C114.757 28.8607 114.195 30.4792 113.07 31.6465C111.953 32.8066 110.388 33.3867 108.376 33.3867ZM108.376 22.4727C106.421 22.4727 105.443 23.9229 105.443 26.8232C105.443 29.6663 106.435 31.0879 108.419 31.0879C110.345 31.0879 111.309 29.6663 111.309 26.8232C111.309 23.9229 110.331 22.4727 108.376 22.4727ZM128.872 33H125.553V26.8018C125.553 25.0687 125.359 23.9945 124.973 23.5791C124.593 23.1566 123.974 22.9453 123.114 22.9453C122.398 22.9453 121.535 23.264 120.525 23.9014V33H117.228V20.5605H120.525V22.3008C121.557 21.4557 122.38 20.8971 122.996 20.625C123.619 20.3529 124.267 20.2168 124.94 20.2168C127.562 20.2168 128.872 21.7529 128.872 24.8252V33ZM142.923 19.0029H139.389V16.0918H142.923V19.0029ZM142.805 33H139.507V20.5605H142.805V33ZM157.876 33H154.557V26.8018C154.557 25.0687 154.363 23.9945 153.977 23.5791C153.597 23.1566 152.978 22.9453 152.118 22.9453C151.402 22.9453 150.539 23.264 149.529 23.9014V33H146.231V20.5605H149.529V22.3008C150.561 21.4557 151.384 20.8971 152 20.625C152.623 20.3529 153.271 20.2168 153.944 20.2168C156.565 20.2168 157.876 21.7529 157.876 24.8252V33ZM160.357 32.4092V29.3584H160.486C161.969 30.5544 163.53 31.1523 165.17 31.1523C166.831 31.1523 167.662 30.7012 167.662 29.7988C167.662 29.4336 167.533 29.1579 167.275 28.9717C167.018 28.7783 166.552 28.6064 165.879 28.4561C165.413 28.3701 164.751 28.2305 163.892 28.0371C163.032 27.8438 162.355 27.5752 161.861 27.2314C161.374 26.8877 161.013 26.4723 160.776 25.9854C160.54 25.4984 160.422 24.9362 160.422 24.2988C160.422 23.0885 160.948 22.1074 162.001 21.3555C163.054 20.5964 164.468 20.2168 166.244 20.2168C167.812 20.2168 169.227 20.4925 170.487 21.0439V23.9443H170.401C168.962 22.9202 167.569 22.4082 166.223 22.4082C165.528 22.4082 164.948 22.5371 164.482 22.7949C164.017 23.0527 163.784 23.375 163.784 23.7617C163.784 24.1986 163.927 24.5173 164.214 24.7178C164.507 24.9111 164.994 25.0866 165.675 25.2441C166.541 25.4017 167.404 25.5915 168.264 25.8135C169.123 26.0355 169.8 26.4294 170.294 26.9951C170.788 27.5537 171.035 28.277 171.035 29.165C171.035 30.4326 170.498 31.446 169.424 32.2051C168.357 32.9642 166.914 33.3438 165.095 33.3438C163.29 33.3438 161.711 33.0322 160.357 32.4092ZM184.85 33H181.552V31.2598C180.549 32.0762 179.733 32.6276 179.103 32.9141C178.472 33.2005 177.817 33.3438 177.137 33.3438C174.516 33.3438 173.205 31.8076 173.205 28.7354V20.5605H176.524V26.7588C176.524 28.4919 176.714 29.5697 177.094 29.9922C177.473 30.4147 178.093 30.626 178.952 30.626C179.69 30.626 180.556 30.3037 181.552 29.6592V20.5605H184.85V33ZM196.688 23.9229H196.58C196.136 23.8083 195.542 23.751 194.797 23.751C193.63 23.751 192.555 23.9372 191.574 24.3096V33H188.276V20.5605H191.574V22.8164C192.584 21.9069 193.415 21.2982 194.066 20.9902C194.718 20.6751 195.359 20.5176 195.989 20.5176C196.154 20.5176 196.387 20.5247 196.688 20.5391V23.9229ZM208.837 33H205.561V31.3779C204.551 32.2445 203.731 32.7852 203.101 33C202.478 33.222 201.812 33.333 201.103 33.333C200.014 33.333 199.112 32.9821 198.396 32.2803C197.679 31.5713 197.321 30.6618 197.321 29.5518C197.321 28.1481 197.848 27.0846 198.9 26.3613C199.96 25.638 202.191 25.1868 205.593 25.0078V24.6748C205.593 23.8942 205.324 23.3285 204.787 22.9775C204.25 22.6266 203.362 22.4512 202.123 22.4512C201.278 22.4512 200.068 22.7734 198.492 23.418H198.374V20.8076C200.035 20.4066 201.539 20.2061 202.886 20.2061C204.984 20.2061 206.499 20.5462 207.43 21.2266C208.368 21.8997 208.837 22.974 208.837 24.4492V33ZM205.561 29.9707V26.834C203.398 27.013 202.044 27.2923 201.5 27.6719C200.956 28.0443 200.684 28.5635 200.684 29.2295C200.684 29.9385 200.873 30.4326 201.253 30.7119C201.632 30.9912 202.227 31.1309 203.036 31.1309C203.888 31.1309 204.73 30.7441 205.561 29.9707ZM223.79 33H220.471V26.8018C220.471 25.0687 220.277 23.9945 219.891 23.5791C219.511 23.1566 218.892 22.9453 218.032 22.9453C217.316 22.9453 216.453 23.264 215.443 23.9014V33H212.146V20.5605H215.443V22.3008C216.475 21.4557 217.298 20.8971 217.914 20.625C218.537 20.3529 219.185 20.2168 219.858 20.2168C222.479 20.2168 223.79 21.7529 223.79 24.8252V33ZM236.863 32.3877C235.474 33.0179 234.217 33.333 233.093 33.333C230.916 33.333 229.218 32.7708 228.001 31.6465C226.784 30.5221 226.175 28.918 226.175 26.834C226.175 24.7357 226.791 23.11 228.022 21.957C229.254 20.7969 230.901 20.2168 232.964 20.2168C234.31 20.2168 235.61 20.5355 236.863 21.1729V24.2021H236.691C235.474 23.1136 234.274 22.5693 233.093 22.5693C231.997 22.5693 231.145 22.9453 230.536 23.6973C229.927 24.4492 229.623 25.4948 229.623 26.834C229.623 28.1732 229.927 29.2008 230.536 29.917C231.152 30.626 232.022 30.9805 233.146 30.9805C234.342 30.9805 235.524 30.4362 236.691 29.3477H236.863V32.3877ZM250.355 27.2959H241.536C241.679 29.7881 243.094 31.0342 245.779 31.0342C247.183 31.0342 248.594 30.5257 250.012 29.5088H250.13V32.3662C248.447 33.0107 246.864 33.333 245.382 33.333C243.047 33.333 241.268 32.778 240.043 31.668C238.818 30.5579 238.206 28.9574 238.206 26.8662C238.206 24.7894 238.786 23.1566 239.946 21.9678C241.106 20.7718 242.707 20.1738 244.748 20.1738C248.486 20.1738 250.355 22.1611 250.355 26.1357V27.2959ZM247.058 25.4268C247.029 23.2855 246.159 22.2148 244.447 22.2148C242.628 22.2148 241.658 23.2855 241.536 25.4268H247.058ZM269.842 32.3877C268.452 33.0179 267.196 33.333 266.071 33.333C263.894 33.333 262.197 32.7708 260.979 31.6465C259.762 30.5221 259.153 28.918 259.153 26.834C259.153 24.7357 259.769 23.11 261.001 21.957C262.233 20.7969 263.88 20.2168 265.942 20.2168C267.289 20.2168 268.589 20.5355 269.842 21.1729V24.2021H269.67C268.452 23.1136 267.253 22.5693 266.071 22.5693C264.976 22.5693 264.123 22.9453 263.515 23.6973C262.906 24.4492 262.602 25.4948 262.602 26.834C262.602 28.1732 262.906 29.2008 263.515 29.917C264.131 30.626 265.001 30.9805 266.125 30.9805C267.321 30.9805 268.503 30.4362 269.67 29.3477H269.842V32.3877ZM277.565 33.3867C275.546 33.3867 273.978 32.8066 272.86 31.6465C271.743 30.4792 271.185 28.8607 271.185 26.791C271.185 24.7142 271.747 23.0921 272.871 21.9248C274.003 20.7575 275.567 20.1738 277.565 20.1738C279.578 20.1738 281.143 20.7575 282.26 21.9248C283.384 23.0921 283.946 24.7142 283.946 26.791C283.946 28.8607 283.384 30.4792 282.26 31.6465C281.143 32.8066 279.578 33.3867 277.565 33.3867ZM277.565 22.4727C275.61 22.4727 274.633 23.9229 274.633 26.8232C274.633 29.6663 275.625 31.0879 277.608 31.0879C279.535 31.0879 280.498 29.6663 280.498 26.8232C280.498 23.9229 279.521 22.4727 277.565 22.4727ZM305.678 33H302.358V26.7588C302.358 25.9281 302.319 25.2012 302.24 24.5781C302.169 23.9479 301.95 23.5182 301.585 23.2891C301.227 23.0599 300.729 22.9453 300.092 22.9453C299.526 22.9453 298.728 23.2604 297.696 23.8906V33H294.377V26.7588C294.377 25.8851 294.334 25.1475 294.248 24.5459C294.162 23.9372 293.937 23.5182 293.571 23.2891C293.213 23.0599 292.723 22.9453 292.1 22.9453C291.505 22.9453 290.71 23.264 289.715 23.9014V33H286.417V20.5605H289.715V22.3008C290.803 21.4056 291.627 20.8363 292.186 20.5928C292.751 20.3421 293.335 20.2168 293.937 20.2168C295.498 20.2168 296.651 21.0117 297.396 22.6016C298.448 21.6849 299.308 21.0583 299.974 20.7217C300.64 20.3851 301.291 20.2168 301.929 20.2168C304.428 20.2168 305.678 21.7529 305.678 24.8252V33ZM312.295 32.1191V37.4795H308.997V20.5605H312.295V22.2256C313.255 21.4163 314.035 20.8792 314.637 20.6143C315.245 20.3493 315.886 20.2168 316.56 20.2168C318.013 20.2168 319.141 20.7754 319.943 21.8926C320.745 23.0098 321.146 24.571 321.146 26.5762C321.146 28.5456 320.638 30.1426 319.621 31.3672C318.604 32.5846 317.337 33.1934 315.818 33.1934C314.758 33.1934 313.584 32.8353 312.295 32.1191ZM312.295 23.6436V30.4971C312.882 30.7406 313.552 30.8623 314.304 30.8623C316.588 30.8623 317.73 29.4766 317.73 26.7051C317.73 24.0768 316.774 22.7627 314.862 22.7627C314.082 22.7627 313.226 23.0563 312.295 23.6436ZM334.198 33H330.922V31.3779C329.912 32.2445 329.092 32.7852 328.462 33C327.839 33.222 327.173 33.333 326.464 33.333C325.375 33.333 324.473 32.9821 323.757 32.2803C323.041 31.5713 322.683 30.6618 322.683 29.5518C322.683 28.1481 323.209 27.0846 324.262 26.3613C325.322 25.638 327.552 25.1868 330.954 25.0078V24.6748C330.954 23.8942 330.686 23.3285 330.148 22.9775C329.611 22.6266 328.723 22.4512 327.484 22.4512C326.639 22.4512 325.429 22.7734 323.854 23.418H323.735V20.8076C325.397 20.4066 326.901 20.2061 328.247 20.2061C330.345 20.2061 331.86 20.5462 332.791 21.2266C333.729 21.8997 334.198 22.974 334.198 24.4492V33ZM330.922 29.9707V26.834C328.759 27.013 327.406 27.2923 326.861 27.6719C326.317 28.0443 326.045 28.5635 326.045 29.2295C326.045 29.9385 326.235 30.4326 326.614 30.7119C326.994 30.9912 327.588 31.1309 328.397 31.1309C329.25 31.1309 330.091 30.7441 330.922 29.9707ZM349.151 33H345.832V26.8018C345.832 25.0687 345.639 23.9945 345.252 23.5791C344.872 23.1566 344.253 22.9453 343.394 22.9453C342.677 22.9453 341.814 23.264 340.805 23.9014V33H337.507V20.5605H340.805V22.3008C341.836 21.4557 342.66 20.8971 343.275 20.625C343.898 20.3529 344.547 20.2168 345.22 20.2168C347.841 20.2168 349.151 21.7529 349.151 24.8252V33ZM363.922 20.5605L357.101 37.4795H353.62L355.511 33.0215L350.645 20.5605H354.222L357.358 29.4443L360.527 20.5605H363.922Z" fill="#2EA9BC"/>
</svg>
