<svg width="175" height="42" viewBox="0 0 175 42" fill="none" xmlns="http://www.w3.org/2000/svg">
<path d="M16.7413 21.4951H158.708" stroke="white" stroke-width="4.99881"/>
<path d="M21.7402 41.99C33.3355 41.99 42.7352 32.5902 42.7352 20.995C42.7352 9.39978 33.3355 0 21.7402 0C10.145 0 0.745239 9.39978 0.745239 20.995C0.745239 32.5902 10.145 41.99 21.7402 41.99Z" fill="#2EA9BC"/>
<path d="M18.9674 10.0244C17.6544 9.45553 16.8294 9.40701 15.2773 9.57513C14.6467 9.79337 14.5462 10.0636 14.6262 10.6984L15.7115 12.7203C15.7115 12.7203 13.9749 14.0683 13.1067 17.2135C12.2386 20.3587 12.8688 25.2247 15.7115 28.4464L14.8432 30.019C14.1921 31.1423 14.6262 32.4902 14.6262 32.4902C14.6262 32.4902 16.1456 32.4902 16.7968 32.0409C17.6577 31.4469 18.3162 30.2437 18.3162 30.2437C18.3162 30.2437 19.6186 31.1423 20.921 30.9176C22.2233 30.693 22.8745 30.019 22.8745 30.019C22.8745 30.019 22.0988 28.3986 20.921 27.7724C20.0036 27.2848 18.3162 27.3231 18.3162 27.3231C18.3162 27.3231 17.499 25.7112 17.8821 23.7286C18.0992 22.6053 18.9674 20.5834 18.9674 20.5834C18.9674 20.5834 19.1843 22.83 20.0527 23.2793C20.921 23.7286 22.6574 19.4601 22.6574 19.4601C22.6574 19.4601 24.6609 19.2329 25.9133 19.4601C27.8554 19.8123 30.4716 21.7067 30.4716 21.7067C30.4716 21.7067 32.2631 22.4914 32.6422 21.7067C32.8318 21.3143 32.7156 21.0154 32.6422 20.5834C32.463 19.5286 31.1228 18.3368 31.1228 18.3368V17.2135C31.1228 17.2135 31.1391 15.2181 30.6887 14.0683C30.2109 12.8487 29.7332 12.1877 28.7351 11.3724C27.7216 10.5445 25.6963 10.0244 25.6963 10.0244C22.8888 9.57733 21.4185 9.58462 18.9674 10.0244Z" fill="white"/>
<path d="M87.7246 41.99C99.3198 41.99 108.72 32.5902 108.72 20.995C108.72 9.39978 99.3198 0 87.7246 0C76.1294 0 66.7296 9.39978 66.7296 20.995C66.7296 32.5902 76.1294 41.99 87.7246 41.99Z" fill="white"/>
<path d="M153.709 41.99C165.304 41.99 174.704 32.5902 174.704 20.995C174.704 9.39978 165.304 0 153.709 0C142.114 0 132.714 9.39978 132.714 20.995C132.714 32.5902 142.114 41.99 153.709 41.99Z" fill="white"/>
</svg>
