<svg width="175" height="42" viewBox="0 0 175 42" fill="none" xmlns="http://www.w3.org/2000/svg">
<path d="M16.7413 21.4951H87.7244" stroke="#2EA9BC" stroke-width="4.99881"/>
<path d="M93.7233 21.4951H164.706" stroke="white" stroke-width="4.99881"/>
<path d="M21.7402 41.99C33.3355 41.99 42.7352 32.5902 42.7352 20.995C42.7352 9.39978 33.3355 0 21.7402 0C10.145 0 0.745239 9.39978 0.745239 20.995C0.745239 32.5902 10.145 41.99 21.7402 41.99Z" fill="#2EA9BC"/>
<path d="M87.7246 41.99C99.3198 41.99 108.72 32.5902 108.72 20.995C108.72 9.39978 99.3198 0 87.7246 0C76.1294 0 66.7296 9.39978 66.7296 20.995C66.7296 32.5902 76.1294 41.99 87.7246 41.99Z" fill="#2EA9BC"/>
<path d="M85.0089 10.0244C83.6959 9.45553 82.8709 9.40701 81.3188 9.57513C80.6882 9.79337 80.5877 10.0636 80.6677 10.6984L81.753 12.7203C81.753 12.7203 80.0164 14.0683 79.1482 17.2135C78.2801 20.3587 78.9103 25.2247 81.753 28.4464L80.8848 30.019C80.2336 31.1423 80.6677 32.4902 80.6677 32.4902C80.6677 32.4902 82.1871 32.4902 82.8383 32.0409C83.6992 31.4469 84.3577 30.2437 84.3577 30.2437C84.3577 30.2437 85.6601 31.1423 86.9625 30.9176C88.2648 30.693 88.916 30.019 88.916 30.019C88.916 30.019 88.1403 28.3986 86.9625 27.7724C86.0451 27.2848 84.3577 27.3231 84.3577 27.3231C84.3577 27.3231 83.5405 25.7112 83.9236 23.7286C84.1407 22.6053 85.0089 20.5834 85.0089 20.5834C85.0089 20.5834 85.2258 22.83 86.0942 23.2793C86.9625 23.7286 88.6989 19.4601 88.6989 19.4601C88.6989 19.4601 90.7024 19.2329 91.9548 19.4601C93.8969 19.8123 96.5131 21.7067 96.5131 21.7067C96.5131 21.7067 98.3046 22.4914 98.6837 21.7067C98.8733 21.3143 98.7571 21.0154 98.6837 20.5834C98.5045 19.5286 97.1643 18.3368 97.1643 18.3368V17.2135C97.1643 17.2135 97.1806 15.2181 96.7302 14.0683C96.2525 12.8487 95.7747 12.1877 94.7766 11.3724C93.7631 10.5445 91.7378 10.0244 91.7378 10.0244C88.9303 9.57733 87.46 9.58462 85.0089 10.0244Z" fill="white"/>
<path d="M153.709 41.99C165.304 41.99 174.704 32.5902 174.704 20.995C174.704 9.39978 165.304 0 153.709 0C142.114 0 132.714 9.39978 132.714 20.995C132.714 32.5902 142.114 41.99 153.709 41.99Z" fill="white"/>
</svg>
