<svg width="175" height="42" viewBox="0 0 175 42" fill="none" xmlns="http://www.w3.org/2000/svg">
<path d="M16.7417 21.4951H87.7248" stroke="#2EA9BC" stroke-width="4.99881"/>
<path d="M93.7236 21.4951H164.707" stroke="#2EA9BC" stroke-width="4.99881"/>
<path d="M21.7406 41.99C33.3358 41.99 42.7356 32.5902 42.7356 20.995C42.7356 9.39978 33.3358 0 21.7406 0C10.1454 0 0.745605 9.39978 0.745605 20.995C0.745605 32.5902 10.1454 41.99 21.7406 41.99Z" fill="#2EA9BC"/>
<path d="M26.5157 10.0723H26.5157C25.5268 10.0723 24.7251 10.874 24.7251 11.8629V14.7279C24.7251 15.7168 25.5268 16.5185 26.5157 16.5185H26.5157C27.5046 16.5185 28.3063 15.7168 28.3063 14.7279V11.8629C28.3063 10.874 27.5046 10.0723 26.5157 10.0723Z" fill="#2EA9BC"/>
<path d="M87.725 41.99C99.3202 41.99 108.72 32.5902 108.72 20.995C108.72 9.39978 99.3202 0 87.725 0C76.1298 0 66.73 9.39978 66.73 20.995C66.73 32.5902 76.1298 41.99 87.725 41.99Z" fill="#2EA9BC"/>
<path d="M92.5001 10.0723H92.5001C91.5112 10.0723 90.7095 10.874 90.7095 11.8629V14.7279C90.7095 15.7168 91.5112 16.5185 92.5001 16.5185H92.5001C93.489 16.5185 94.2907 15.7168 94.2907 14.7279V11.8629C94.2907 10.874 93.489 10.0723 92.5001 10.0723Z" fill="#2EA9BC"/>
<path d="M153.709 41.99C165.305 41.99 174.704 32.5902 174.704 20.995C174.704 9.39978 165.305 0 153.709 0C142.114 0 132.714 9.39978 132.714 20.995C132.714 32.5902 142.114 41.99 153.709 41.99Z" fill="#2EA9BC"/>
<path d="M151.05 10.0244C149.737 9.45553 148.912 9.40701 147.36 9.57513C146.73 9.79337 146.629 10.0636 146.709 10.6984L147.794 12.7203C147.794 12.7203 146.058 14.0683 145.19 17.2135C144.321 20.3587 144.952 25.2247 147.794 28.4464L146.926 30.019C146.275 31.1423 146.709 32.4902 146.709 32.4902C146.709 32.4902 148.229 32.4902 148.88 32.0409C149.741 31.4469 150.399 30.2437 150.399 30.2437C150.399 30.2437 151.701 31.1423 153.004 30.9176C154.306 30.693 154.957 30.019 154.957 30.019C154.957 30.019 154.182 28.3986 153.004 27.7724C152.087 27.2848 150.399 27.3231 150.399 27.3231C150.399 27.3231 149.582 25.7112 149.965 23.7286C150.182 22.6053 151.05 20.5834 151.05 20.5834C151.05 20.5834 151.267 22.83 152.136 23.2793C153.004 23.7286 154.74 19.4601 154.74 19.4601C154.74 19.4601 156.744 19.2329 157.996 19.4601C159.938 19.8123 162.554 21.7067 162.554 21.7067C162.554 21.7067 164.346 22.4914 164.725 21.7067C164.915 21.3143 164.799 21.0154 164.725 20.5834C164.546 19.5286 163.206 18.3368 163.206 18.3368V17.2135C163.206 17.2135 163.222 15.2181 162.772 14.0683C162.294 12.8487 161.816 12.1877 160.818 11.3724C159.804 10.5445 157.779 10.0244 157.779 10.0244C154.972 9.57733 153.501 9.58462 151.05 10.0244Z" fill="white"/>
</svg>
